<?xml version="1.0" standalone="no"?>
<!DOCTYPE svg PUBLIC "-//W3C//DTD SVG 20010904//EN"
 "http://www.w3.org/TR/2001/REC-SVG-20010904/DTD/svg10.dtd">
<svg version="1.0" xmlns="http://www.w3.org/2000/svg"
 width="1024.000000pt" height="1024.000000pt" viewBox="0 0 1024.000000 1024.000000"
 preserveAspectRatio="xMidYMid meet">

<g transform="translate(0.000000,1024.000000) scale(0.100000,-0.100000)"
fill="#000000" stroke="none">
<path d="M4890 8689 c-844 -86 -1549 -600 -1880 -1372 -132 -308 -187 -605
-177 -947 10 -348 79 -625 231 -930 338 -678 987 -1152 1725 -1260 170 -25
456 -27 628 -5 395 52 778 210 1095 452 489 374 812 940 888 1553 14 120 12
416 -4 540 -66 496 -280 938 -625 1293 -374 385 -852 616 -1403 676 -112 13
-354 12 -478 0z m290 -1239 l0 -880 935 0 935 0 0 -55 0 -55 -935 0 -935 0 0
-905 0 -905 -55 0 -55 0 0 905 0 905 -940 0 -940 0 0 55 0 55 940 0 940 0 0
880 0 880 55 0 55 0 0 -880z m-1160 535 c0 -24 35 -87 62 -112 32 -30 90 -53
135 -53 79 0 171 74 188 151 8 33 12 33 128 -6 114 -39 136 -62 274 -279 45
-71 71 -122 66 -127 -5 -5 -52 -36 -104 -69 l-94 -60 -25 31 c-14 17 -35 43
-47 58 l-22 26 -1 -367 0 -368 -370 0 -370 0 0 372 0 371 -41 -64 c-23 -35
-42 -65 -44 -67 -1 -1 -36 19 -76 46 -41 26 -91 58 -111 71 -21 12 -38 24 -38
26 0 10 196 295 222 323 37 40 71 58 163 88 83 27 105 29 105 9z m2187 -20
c43 -13 99 -38 126 -54 l47 -31 -69 -67 c-111 -110 -161 -232 -161 -393 0
-163 47 -277 158 -388 68 -68 72 -75 55 -87 -78 -59 -223 -105 -328 -105 -116
0 -238 35 -315 91 l-42 30 65 59 c110 101 167 238 167 400 0 102 -19 181 -63
264 -31 60 -113 153 -152 174 l-20 11 20 15 c135 102 343 135 512 81z m-1887
-4 c-20 -38 -61 -61 -106 -61 -37 0 -50 6 -82 36 -34 33 -35 35 -12 30 63 -15
108 -16 150 -3 60 20 62 20 50 -2z m1385 -215 c63 -63 101 -139 122 -245 15
-74 15 -88 0 -163 -23 -115 -64 -194 -138 -262 -33 -31 -64 -56 -69 -56 -27 0
-110 126 -140 213 -12 36 -23 100 -27 152 -8 144 28 261 119 383 46 61 51 61
133 -22z m778 24 c103 -120 149 -311 116 -472 -15 -70 -69 -183 -112 -233
l-35 -40 -37 19 c-47 26 -98 82 -131 148 -82 162 -71 353 30 500 36 54 105
117 128 118 3 0 22 -18 41 -40z m27 -1595 l0 -55 -465 0 -465 0 0 55 0 55 465
0 465 0 0 -55z m-2377 -86 c31 -17 84 -64 135 -120 l42 -47 -52 -29 c-56 -30
-68 -56 -36 -77 14 -8 30 -4 74 17 l57 28 23 -22 c13 -12 24 -25 24 -28 0 -3
-18 -16 -40 -29 -41 -23 -49 -39 -28 -60 18 -18 45 -14 94 14 l44 26 29 -24
c17 -12 30 -26 30 -29 1 -3 -17 -14 -39 -24 -31 -14 -40 -24 -38 -38 6 -39 33
-44 91 -15 l53 26 105 -64 c273 -169 245 -266 -73 -251 -157 7 -240 30 -531
146 -123 49 -296 112 -383 140 -87 28 -177 58 -200 66 l-40 15 48 146 c26 81
53 153 59 160 19 24 49 16 67 -17 30 -55 65 -91 107 -110 75 -35 108 -25 231
68 56 42 74 62 80 86 11 55 28 66 67 46z m2396 -106 c113 -690 141 -866 139
-868 -3 -3 -390 -55 -460 -62 l-47 -5 -10 38 c-5 22 -30 136 -56 254 -25 118
-48 222 -51 230 -3 8 -25 -79 -49 -195 -66 -319 -69 -330 -85 -328 -64 7 -486
67 -488 68 -3 2 137 899 144 923 3 9 107 12 478 12 l474 0 11 -67z m-2852
-423 c117 -38 309 -108 427 -155 231 -92 317 -118 454 -136 98 -13 247 -8 280
10 33 18 26 -3 -12 -37 -59 -51 -123 -67 -276 -67 -161 0 -238 16 -395 81
-209 86 -236 94 -397 110 -169 16 -238 32 -288 66 -49 34 -56 50 -43 100 13
47 31 98 35 98 2 0 99 -31 215 -70z"/>
<path d="M1547 3690 c-54 -14 -128 -54 -159 -87 -41 -42 -58 -94 -58 -170 1
-156 82 -229 334 -298 98 -27 139 -87 100 -144 -51 -73 -221 -67 -371 13 l-63
34 0 -95 0 -94 53 -24 c221 -101 482 -54 557 100 33 68 32 167 -2 232 -37 73
-90 107 -238 153 -104 33 -134 47 -155 71 -41 49 -31 105 25 134 64 33 213 8
303 -51 l38 -25 -3 103 -3 103 -65 24 c-73 26 -227 37 -293 21z"/>
<path d="M3178 3681 c-82 -27 -138 -63 -197 -127 -62 -68 -86 -112 -106 -196
-28 -120 -16 -240 35 -345 53 -107 179 -204 301 -232 57 -13 191 -13 248 0
162 37 303 178 340 340 23 100 5 252 -40 341 -28 54 -113 143 -167 175 -108
64 -291 83 -414 44z m281 -182 c86 -38 131 -99 150 -205 28 -153 -42 -286
-175 -331 -70 -24 -188 -14 -247 20 -88 52 -126 126 -127 248 0 86 11 126 51
186 70 102 222 138 348 82z"/>
<path d="M2092 3238 l3 -453 93 2 94 2 1 148 2 148 140 5 c120 4 147 8 187 28
97 48 158 150 158 262 0 93 -24 156 -84 216 -82 81 -135 94 -392 94 l-204 0 2
-452z m417 269 c45 -23 66 -63 66 -125 0 -105 -54 -142 -205 -142 l-90 0 0
140 0 140 103 0 c61 0 112 -5 126 -13z"/>
<path d="M3940 3241 l0 -451 95 0 95 0 0 160 0 161 72 -3 73 -3 96 -155 96
-155 106 -3 c59 -1 107 0 107 3 0 3 -47 75 -105 159 -58 85 -107 160 -110 168
-4 9 6 18 29 26 45 17 119 99 134 150 7 21 12 70 12 108 0 118 -58 207 -165
256 -47 22 -64 23 -292 26 l-243 4 0 -451z m410 280 c64 -13 100 -56 100 -121
0 -110 -31 -130 -200 -130 l-120 0 0 130 0 130 88 0 c48 -1 107 -5 132 -9z"/>
<path d="M4720 3605 l0 -85 135 0 135 0 0 -365 0 -365 95 0 95 0 0 365 0 365
135 0 135 0 0 85 0 85 -365 0 -365 0 0 -85z"/>
<path d="M5570 3240 l0 -450 95 0 95 0 0 175 0 175 190 0 190 0 0 80 0 80
-190 0 -190 0 0 110 0 110 215 0 215 0 0 85 0 85 -310 0 -310 0 0 -450z"/>
<path d="M6320 3240 l0 -450 95 0 95 0 0 450 0 450 -95 0 -95 0 0 -450z"/>
<path d="M6680 3240 l0 -450 310 0 310 0 0 80 0 80 -211 2 -211 3 0 100 0 100
174 3 173 2 -3 85 -3 85 -172 0 -172 0 0 95 0 95 203 0 202 0 0 85 0 85 -300
0 -300 0 0 -450z"/>
<path d="M7450 3240 l0 -449 280 -3 280 -3 0 82 0 83 -185 2 -186 3 1 368 0
367 -95 0 -95 0 0 -450z"/>
<path d="M8130 3239 l0 -451 228 4 c203 4 234 7 289 27 167 60 265 190 280
371 16 196 -73 374 -223 445 -92 43 -170 55 -381 55 l-193 0 0 -451z m426 266
c110 -33 165 -111 172 -246 5 -108 -13 -172 -67 -227 -49 -51 -108 -70 -237
-78 l-104 -7 0 287 0 286 93 0 c53 0 115 -6 143 -15z"/>
<path d="M5640 2190 l0 -250 40 0 40 0 0 250 0 250 -40 0 -40 0 0 -250z"/>
<path d="M6113 2429 c-75 -22 -104 -106 -62 -183 11 -21 19 -39 17 -40 -2 -2
-18 -13 -36 -25 -122 -84 -52 -251 105 -251 60 0 99 13 131 43 l23 21 22 -26
c18 -22 32 -27 75 -30 28 -2 52 -2 52 -1 0 1 -24 24 -52 52 -50 48 -52 51 -39
73 8 13 27 47 42 76 l27 52 -38 0 c-37 0 -40 -3 -59 -45 -11 -25 -24 -45 -28
-45 -5 0 -28 20 -52 44 l-43 44 46 44 c40 39 46 50 46 86 0 51 -36 97 -88 112
-42 11 -46 11 -89 -1z m92 -79 c24 -26 12 -64 -28 -94 l-29 -21 -19 24 c-11
13 -22 34 -25 48 -14 53 63 85 101 43z m-21 -249 c66 -67 66 -82 -2 -101 -113
-31 -185 91 -87 148 11 6 22 12 25 12 3 0 32 -27 64 -59z"/>
<path d="M6825 2433 c-79 -17 -133 -57 -171 -125 -24 -45 -28 -64 -29 -128 0
-66 4 -82 31 -130 43 -76 100 -111 194 -118 122 -8 215 49 245 152 29 98 31
96 -95 96 l-110 0 0 -30 0 -30 70 0 c39 0 70 -4 70 -9 0 -21 -49 -78 -80 -93
-105 -53 -227 10 -244 126 -27 180 159 293 282 170 30 -30 39 -34 68 -28 40 7
40 9 14 51 -42 70 -158 115 -245 96z"/>
<path d="M2030 2185 l0 -245 40 0 40 0 0 90 0 90 70 0 c83 0 126 16 162 58 50
59 45 153 -11 206 -26 25 -41 30 -113 37 -46 4 -107 8 -135 8 l-53 1 0 -245z
m218 164 c39 -13 58 -57 46 -102 -12 -42 -45 -57 -121 -57 l-63 0 0 85 0 85
54 0 c29 0 67 -5 84 -11z"/>
<path d="M3413 2412 c-12 -31 -141 -367 -162 -419 l-21 -53 43 0 42 0 20 58
20 57 99 0 100 0 20 -57 21 -58 42 0 43 0 -15 38 c-8 20 -50 129 -93 242 l-79
204 -37 2 c-27 2 -39 -2 -43 -14z m76 -177 c16 -44 32 -87 36 -96 5 -15 -3
-16 -67 -15 -59 1 -72 4 -70 16 5 25 65 181 68 177 1 -1 16 -38 33 -82z"/>
<path d="M2564 2281 c-18 -11 -34 -25 -37 -33 -3 -7 -6 -1 -6 15 -1 25 -4 27
-41 27 l-40 0 0 -175 0 -175 40 0 40 0 0 103 c0 127 17 163 80 173 39 6 40 8
40 45 0 34 -3 39 -22 39 -13 0 -37 -9 -54 -19z"/>
<path d="M2775 2286 c-49 -21 -93 -79 -101 -133 -19 -126 60 -223 181 -223
109 0 185 76 185 185 0 110 -76 186 -187 185 -26 -1 -62 -7 -78 -14z m158 -87
c22 -23 27 -39 27 -77 0 -61 -17 -93 -60 -114 -76 -37 -150 18 -150 110 0 54
12 77 53 103 43 26 93 18 130 -22z"/>
<path d="M3852 2275 c-31 -26 -32 -26 -32 -6 0 18 -6 21 -40 21 l-40 0 0 -255
0 -255 40 0 40 0 0 97 0 96 21 -19 c31 -28 147 -27 186 2 67 49 92 166 54 250
-26 57 -72 87 -141 92 -49 4 -60 1 -88 -23z m141 -76 c23 -25 27 -38 27 -83 0
-44 -5 -60 -26 -85 -22 -27 -32 -31 -74 -31 -42 0 -52 4 -74 31 -37 43 -37
124 -1 168 42 49 102 49 148 0z"/>
<path d="M4281 2274 c-30 -25 -31 -25 -31 -5 0 18 -6 21 -40 21 l-40 0 0 -255
0 -255 40 0 40 0 0 94 0 94 37 -19 c83 -42 174 -15 221 66 19 34 22 52 20 112
-4 80 -20 111 -78 151 -48 33 -128 31 -169 -4z m108 -44 c18 0 59 -53 65 -83
16 -84 -28 -147 -101 -147 -36 0 -50 6 -75 30 -28 29 -30 35 -26 90 3 39 11
66 23 80 20 22 72 41 93 34 8 -2 17 -4 21 -4z"/>
<path d="M4659 2277 c-32 -21 -69 -71 -59 -80 3 -2 20 -7 38 -10 24 -5 32 -3
32 8 0 22 41 45 81 45 29 0 43 -6 58 -26 40 -51 31 -61 -63 -66 -97 -5 -130
-21 -152 -75 -20 -47 -4 -97 40 -124 44 -28 135 -22 171 11 l25 23 0 -21 c0
-18 6 -22 35 -22 l35 0 0 133 c0 147 -7 169 -59 204 -47 32 -135 32 -182 0z
m171 -197 c0 -44 -54 -90 -105 -90 -62 0 -88 52 -43 84 25 18 148 23 148 6z"/>
<path d="M5033 2292 l-33 -3 0 -175 0 -174 35 0 35 0 0 90 c0 128 32 190 97
190 20 0 23 5 23 41 0 41 0 41 -32 35 -18 -3 -44 -18 -59 -32 l-28 -26 -3 28
c-3 26 -6 29 -35 26z"/>
<path d="M5340 2293 c-134 -55 -149 -271 -25 -340 69 -39 191 -22 236 34 11
13 9 19 -16 39 l-30 23 -27 -26 c-51 -49 -144 -28 -166 36 l-11 31 135 0 134
0 0 38 c0 47 -36 119 -72 146 -28 20 -127 32 -158 19z m103 -65 c25 -13 44
-35 50 -60 5 -16 -4 -18 -94 -18 l-100 0 16 29 c28 55 80 75 128 49z"/>
<path d="M7290 2293 c-133 -50 -149 -271 -25 -340 69 -39 190 -22 235 32 13
16 12 20 -15 41 l-30 23 -26 -25 c-19 -18 -38 -25 -66 -26 -52 0 -76 13 -96
54 l-16 33 136 3 135 3 -4 55 c-8 93 -72 155 -162 153 -28 0 -58 -3 -66 -6z
m109 -68 c16 -8 34 -28 39 -45 l11 -30 -95 0 c-107 0 -117 9 -65 61 33 32 67
37 110 14z"/>
<path d="M7652 2284 c-30 -15 -73 -77 -61 -88 2 -2 19 -7 37 -11 25 -5 32 -3
32 9 0 23 40 46 81 46 29 0 43 -6 58 -26 12 -15 21 -35 21 -45 0 -17 -8 -19
-70 -19 -119 0 -170 -36 -170 -118 0 -32 6 -49 24 -67 40 -40 146 -46 186 -10
21 19 30 19 30 0 0 -11 11 -15 36 -15 l35 0 -3 145 -3 145 -32 32 c-29 29 -39
33 -100 35 -49 3 -77 -1 -101 -13z m168 -204 c0 -32 -33 -70 -69 -81 -53 -16
-89 -6 -97 28 -11 42 23 63 102 63 38 0 64 -4 64 -10z"/>
<path d="M7990 2295 c0 0 -1 -80 -3 -178 l-2 -177 38 0 37 0 0 94 c0 52 4 106
10 120 15 39 47 66 80 66 28 0 30 2 30 40 0 28 -4 40 -14 40 -26 0 -64 -18
-85 -41 l-21 -23 0 26 c0 22 -5 26 -35 30 -19 2 -35 4 -35 3z"/>
</g>
</svg>
